<svg style="width: 0.7155em; height: 1em" viewBox="0 0 166 232" fill="none" xmlns="http://www.w3.org/2000/svg">
<path d="M165.987 97.18C165.804 90.6969 162.602 84.9706 157.731 81.3631C157.731 81.3626 157.731 81.3621 157.731 81.3616C152.463 76.4127 146.773 72.0016 141.261 66.0903C140.349 65.1118 139.587 64.2477 138.933 63.4542C138.857 63.3645 138.782 63.2739 138.707 63.1823C138.616 63.0688 138.534 62.962 138.446 62.8519C138.415 62.8104 138.382 62.7698 138.35 62.7279C135.598 59.1947 135.328 57.2071 135.328 53.8199C135.328 52.1089 135.328 48.4775 135.328 44.7126H139.753C146.084 44.7126 151.217 40.1366 151.217 34.4918V10.9835C151.217 5.33827 146.085 0.762207 139.753 0.762207H26.248C19.9161 0.762207 14.783 5.33827 14.783 10.9835V34.4913C14.783 40.1361 19.9161 44.7121 26.248 44.7121H30.6729C30.6729 48.477 30.6729 52.1084 30.6729 53.8194C30.6729 57.2067 30.403 59.1943 27.6509 62.7274C27.6199 62.7694 27.5856 62.8099 27.5546 62.8514C27.4669 62.9615 27.3858 63.0688 27.2942 63.1819C27.2198 63.2734 27.145 63.3635 27.0682 63.4537C26.4134 64.2472 25.6524 65.1118 24.7406 66.0898C19.2284 72.0011 13.5384 76.4122 8.26991 81.3612C8.26991 81.3616 8.26991 81.3616 8.26991 81.3626C3.39914 84.9706 0.196947 90.6969 0.0143056 97.1795C0.0100137 97.1862 0.00524559 97.1919 0 97.1981C0 97.3669 0 97.5562 0 97.7512C0 97.7551 0 97.7584 0 97.7622C0 97.7656 0 97.7694 0 97.7732C0 112.385 0 198.777 0 209.734C0 220.844 8.16452 231.667 21.9323 231.667C28.8107 231.667 48.9909 231.667 82.5646 231.667C82.5646 231.667 82.6762 231.667 82.8836 231.667C82.9275 231.667 82.9609 231.667 83 231.667C83.0391 231.667 83.0725 231.667 83.1164 231.667C83.3238 231.667 83.4354 231.667 83.4354 231.667C117.009 231.667 137.189 231.667 144.068 231.667C157.835 231.667 166 220.844 166 209.734C166 198.777 166 112.385 166 97.7732C166 97.7694 166 97.7656 166 97.7622C166 97.7584 166 97.7551 166 97.7512C166 97.5562 166 97.3669 166 97.1981C165.996 97.1924 165.991 97.1866 165.987 97.18ZM143.045 184.204C143.045 190.537 137.912 195.67 131.58 195.67H34.422C28.0906 195.67 22.9571 190.537 22.9571 184.204V132.612C22.9571 126.28 28.0906 121.147 34.422 121.147H131.58C137.912 121.147 143.045 126.28 143.045 132.612V184.204Z" fill="#7CCA31" class="fill-path"/>
</svg>
