<svg style="width: 0.5em; height: 1em" viewBox="0 0 125 250" fill="none" xmlns="http://www.w3.org/2000/svg">
<path d="M123.215 96.7969C124.349 95.8101 125 94.3809 125 92.8755V67.7085C125 64.8296 122.67 62.5 119.792 62.5H114.583V52.0835C114.583 40.5933 105.24 31.25 93.75 31.25V10.4165C93.75 4.67432 89.0757 0 83.3335 0L36.4585 0C16.3574 0 0 16.3574 0 36.4585C0 50.9468 8.56104 63.3848 20.8335 69.2598V92.8755C20.8335 94.3809 21.4844 95.8101 22.6187 96.7969C27.9438 101.445 31.25 110.255 31.25 119.792C31.25 129.328 27.9438 138.138 22.6187 142.787C21.4844 143.773 20.8335 145.203 20.8335 146.708L20.8335 229.167C20.8335 240.656 30.1768 250 41.667 250H104.167C115.657 250 125 240.657 125 229.167V146.708C125 145.203 124.349 143.773 123.215 142.787C117.89 138.138 114.583 129.328 114.583 119.792C114.583 110.255 117.89 101.445 123.215 96.7969ZM52.0835 31.25C40.5933 31.25 31.25 40.5933 31.25 52.0835V61.9731C19.3779 59.5532 10.4165 49.0337 10.4165 36.4585C10.4165 22.1001 22.0996 10.417 36.458 10.417H52.083V31.25H52.0835Z" fill="#7CCA31" class="fill-path"/>
</svg>
