<svg style="width: 1em; height: 1em" width="220" height="220" viewBox="0 0 220 220" fill="none" xmlns="http://www.w3.org/2000/svg">
<path d="M204.286 110C204.286 63.2762 170.092 24.4922 125.436 17.0908C125.479 16.6139 125.714 16.2026 125.714 15.7144C125.714 7.03521 118.679 0 110 0C101.321 0 94.2856 7.03521 94.2856 15.7144C94.2856 16.2026 94.5206 16.6139 94.5636 17.0908C49.9078 24.4922 15.7144 63.2762 15.7144 110H0V141.428L12.6736 151.091C12.6736 151.091 31.4288 192.104 31.4288 220H188.572C188.572 172.857 220 141.429 220 141.429V110L204.286 110ZM165 70.7142C169.339 70.7142 172.857 74.2313 172.857 78.5712C172.857 82.9101 169.339 86.4282 165 86.4282C160.661 86.4282 157.143 82.9101 157.143 78.5712C157.143 74.2313 160.661 70.7142 165 70.7142ZM133.571 78.5712C137.91 78.5712 141.428 82.0883 141.428 86.4282C141.428 90.7671 137.91 94.2851 133.571 94.2851C129.232 94.2851 125.714 90.7671 125.714 86.4282C125.714 82.0883 129.232 78.5712 133.571 78.5712ZM117.857 54.9998C113.518 54.9998 110 51.4817 110 47.1428C110 42.803 113.518 39.2858 117.857 39.2858C122.196 39.2858 125.714 42.803 125.714 47.1428C125.714 51.4817 122.196 54.9998 117.857 54.9998ZM94.2856 78.5712C94.2856 82.9101 90.7675 86.4282 86.4286 86.4282C82.0897 86.4282 78.5716 82.9101 78.5716 78.5712C78.5716 74.2313 82.0897 70.7142 86.4286 70.7142C90.7675 70.7142 94.2856 74.2313 94.2856 78.5712ZM78.5712 39.2858C82.9101 39.2858 86.4282 42.803 86.4282 47.1428C86.4282 51.4817 82.9101 54.9998 78.5712 54.9998C74.2322 54.9998 70.7142 51.4817 70.7142 47.1428C70.7142 42.803 74.2322 39.2858 78.5712 39.2858ZM39.2858 102.143C39.2858 97.8027 42.8039 94.2856 47.1428 94.2856C51.4817 94.2856 54.9998 97.8027 54.9998 102.143C54.9998 106.481 51.4817 110 47.1428 110C42.8039 110 39.2858 106.482 39.2858 102.143Z" fill="#7CCA31" class="fill-path"/>
</svg>
