<svg style="width: 1.0387em; height: 1em" viewBox="0 0 161 155" fill="none" xmlns="http://www.w3.org/2000/svg">
<path d="M27.8759 102.591C43.8249 116.68 74.8427 123.069 74.8427 123.069C74.8427 123.069 64.9177 93.1905 49.498 78.7927C33.3987 63.7603 1.04897 56.0231 1.04897 56.0231C1.04897 56.0231 11.2357 87.8917 27.8759 102.591Z" fill="#7CCA31" class="fill-path"/>
<path d="M35.9501 140.898C50.5606 139.646 68.4891 127.046 68.4891 127.046C68.4891 127.046 48.86 117.612 34.3468 118.447C19.1938 119.319 -0.0400015 131.94 -0.0400015 131.94C-0.0400015 131.94 20.7064 142.204 35.9501 140.898Z" fill="#7CCA31" class="fill-path"/>
<path d="M71.8485 145.73C75.0883 140.631 74.8977 131.243 74.8977 131.243C74.8977 131.243 66.3587 134.946 62.9865 139.895C59.4655 145.062 59.3328 154.88 59.3328 154.88C59.3328 154.88 68.4683 151.05 71.8485 145.73Z" fill="#7CCA31" class="fill-path"/>
<path d="M88.9607 145.693C85.7142 140.584 85.8963 131.183 85.8963 131.183C85.8963 131.183 94.4438 134.899 97.8227 139.858C101.351 145.035 101.492 154.868 101.492 154.868C101.492 154.868 92.3478 151.023 88.9607 145.693Z" fill="#7CCA31" class="fill-path"/>
<path d="M133.124 102.591C117.175 116.68 86.1573 123.069 86.1573 123.069C86.1573 123.069 96.0823 93.1905 111.502 78.7927C127.601 63.7603 159.951 56.0231 159.951 56.0231C159.951 56.0231 149.764 87.8917 133.124 102.591Z" fill="#7CCA31" class="fill-path"/>
<path d="M125.299 140.892C110.721 139.642 92.8338 127.046 92.8338 127.046C92.8338 127.046 112.421 117.609 126.903 118.442C142.022 119.311 161.212 131.929 161.212 131.929C161.212 131.929 140.509 142.196 125.299 140.892Z" fill="#7CCA31" class="fill-path"/>
<path d="M58.2157 62.725C58.6174 88.8084 80.3914 122.217 80.3914 122.217C80.3914 122.217 101.236 88.5829 101.623 62.725C102.028 35.7275 80.3914 0 80.3914 0C80.3914 0 57.7966 35.5114 58.2157 62.725Z" fill="#7CCA31" class="fill-path"/>
</svg>
