<svg style="width: 0.9345em; height: 1em" viewBox="0 0 328 351" fill="none" xmlns="http://www.w3.org/2000/svg">
<path d="M244.777 249.234C246.269 205.774 216.039 148.554 216.039 148.554C216.039 148.554 181.816 203.034 179.148 246.061C176.363 290.985 206.199 352.055 206.199 352.055C206.199 352.055 243.219 294.578 244.777 249.234Z" fill="#7CCA31" class="fill-path" fill-opacity="0.2"/>
<path d="M295.001 187.045C273.906 165.49 230.567 153.409 230.567 153.409C230.567 153.409 241.37 196.805 261.68 218.748C282.884 241.657 327.966 255.781 327.966 255.781C327.966 255.781 317.01 209.534 295.001 187.045Z" fill="#7CCA31" class="fill-path" fill-opacity="0.2"/>
<path d="M256.303 123.76C243.772 125.307 228.856 137.846 228.856 137.846C228.856 137.846 246.152 146.462 258.616 145.319C271.629 144.126 287.669 131.535 287.669 131.535C287.669 131.535 269.376 122.147 256.303 123.76Z" fill="#7CCA31" class="fill-path" fill-opacity="0.2"/>
<path d="M233.543 96.3334C229.63 108.337 214.47 120.58 214.47 120.58C214.47 120.58 209.32 101.956 212.824 89.9408C216.483 77.3958 231.909 64.0596 231.909 64.0596C231.909 64.0596 237.626 83.8098 233.543 96.3334Z" fill="#7CCA31" class="fill-path" fill-opacity="0.2"/>
<path d="M108.007 83.2553C150.951 90.0993 201.336 130.712 201.336 130.712C201.336 130.712 141.318 153.887 98.5746 148.28C53.9472 142.425 -0.292759 101.463 -0.292759 101.463C-0.292759 101.463 63.2025 76.1147 108.007 83.2553Z" fill="#7CCA31" class="fill-path" fill-opacity="0.2"/>
<path d="M178.235 45.3391C195.359 70.1659 198.931 115.015 198.931 115.015C198.931 115.015 158.401 96.1147 140.746 71.9849C122.313 46.7916 117.069 -0.158827 117.069 -0.158827C117.069 -0.158827 160.369 19.4364 178.235 45.3391Z" fill="#7CCA31" class="fill-path" fill-opacity="0.2"/>
<path d="M142.48 253.192C183.092 218.664 207.483 140.911 207.483 140.911C207.483 140.911 127.354 151.746 86.072 184.737C42.97 219.182 14.7437 299.731 14.7437 299.731C14.7437 299.731 100.108 289.217 142.48 253.192Z" fill="#7CCA31" class="fill-path" fill-opacity="0.2"/>
<path d="M246.723 187.566C242.06 154.336 211.451 114.88 211.451 114.88C211.451 114.88 192.708 160.851 196.42 193.909C200.295 228.424 231.118 270.86 231.118 270.86C231.118 270.86 251.588 222.236 246.723 187.566Z" fill="white" fill-opacity="0.5"/>
<path d="M276.6 133.601C257.692 120.032 223.142 116.632 223.142 116.632C223.142 116.632 237.141 148.173 255.504 162.141C274.676 176.724 310.823 181.445 310.823 181.445C310.823 181.445 296.328 147.757 276.6 133.601Z" fill="white" fill-opacity="0.5"/>
<path d="M238.746 90.6644C229.429 93.5112 219.765 105.031 219.765 105.031C219.765 105.031 234.059 109.272 243.38 106.741C253.111 104.099 263.622 92.3894 263.622 92.3894C263.622 92.3894 248.467 87.6943 238.746 90.6644Z" fill="white" fill-opacity="0.5"/>
<path d="M217.79 72.8553C216.416 82.5003 206.528 93.828 206.528 93.828C206.528 93.828 200.129 80.3601 201.19 70.7605C202.297 60.7378 212.242 48.5442 212.242 48.5442C212.242 48.5442 219.222 62.7923 217.79 72.8553Z" fill="white" fill-opacity="0.5"/>
<path d="M120.634 79.661C154.186 79.1342 197.897 103.28 197.897 103.28C197.897 103.28 155.373 128.9 122.139 130.34C87.4395 131.843 40.7514 107.946 40.7514 107.946C40.7514 107.946 85.6284 80.2107 120.634 79.661Z" fill="white" fill-opacity="0.5"/>
<path d="M168.95 41.4761C185.277 58.061 193.975 91.6712 193.975 91.6712C193.975 91.6712 160.649 82.7128 144.012 66.7285C126.642 50.0397 116.393 15.0554 116.393 15.0554C116.393 15.0554 151.916 24.1725 168.95 41.4761Z" fill="white" fill-opacity="0.5"/>
<path d="M169.502 204.22C195.762 172.56 203.929 110.212 203.929 110.212C203.929 110.212 144.474 129.136 117.498 159.717C89.3344 191.645 78.6263 256.631 78.6263 256.631C78.6263 256.631 142.103 237.252 169.502 204.22Z" fill="white" fill-opacity="0.5"/>
<path d="M237.434 193.052C236.052 170.733 217.752 142.937 217.752 142.937C217.752 142.937 202.925 172.513 203.685 194.669C204.478 217.801 222.766 247.588 222.766 247.588C222.766 247.588 238.876 216.339 237.434 193.052Z" fill="#7CCA31" class="fill-path" fill-opacity="0.75"/>
<path d="M260.07 158.739C248.208 148.748 225.428 144.705 225.428 144.705C225.428 144.705 233.101 166.384 244.58 176.613C256.565 187.292 280.338 192.295 280.338 192.295C280.338 192.295 272.447 169.164 260.07 158.739Z" fill="#7CCA31" class="fill-path" fill-opacity="0.75"/>
<path d="M237.137 128.257C230.8 129.668 223.784 136.823 223.784 136.823C223.784 136.823 233.063 140.379 239.386 139.178C245.988 137.925 253.576 130.688 253.576 130.688C253.576 130.688 243.749 126.786 237.137 128.257Z" fill="#7CCA31" class="fill-path" fill-opacity="0.75"/>
<path d="M224.133 115.343C222.723 121.68 215.568 128.696 215.568 128.696C215.568 128.696 212.012 119.417 213.212 113.094C214.466 106.492 221.703 98.9038 221.703 98.9038C221.703 98.9038 225.605 108.731 224.133 115.343Z" fill="#7CCA31" class="fill-path" fill-opacity="0.75"/>
<path d="M159.23 114.848C181.549 116.231 209.345 134.53 209.345 134.53C209.345 134.53 179.768 149.357 157.613 148.598C134.481 147.805 104.694 129.517 104.694 129.517C104.694 129.517 135.943 113.406 159.23 114.848Z" fill="#7CCA31" class="fill-path" fill-opacity="0.75"/>
<path d="M193.304 91.9724C203.295 103.835 207.339 126.615 207.339 126.615C207.339 126.615 185.659 118.942 175.431 107.463C164.752 95.4776 159.749 71.7045 159.749 71.7045C159.749 71.7045 182.88 79.5962 193.304 91.9724Z" fill="#7CCA31" class="fill-path" fill-opacity="0.75"/>
<path d="M185.267 200.13C204.35 180.451 212.995 139.448 212.995 139.448C212.995 139.448 172.515 148.951 153.013 167.876C132.652 187.636 122.182 230.26 122.182 230.26C122.182 230.26 165.358 220.662 185.267 200.13Z" fill="#7CCA31" class="fill-path" fill-opacity="0.75"/>
</svg>
