<svg style="height:1em;width:1.3809em" viewBox="0 0 58 42" fill="none" xmlns="http://www.w3.org/2000/svg">
<path fill-rule="evenodd" clip-rule="evenodd" d="M3.33236 39.9794C3.18119 39.0355 3.7251 38.1193 4.61682 37.8158L8.23111 36.5857C8.15423 36.524 8.08178 36.4561 8.01453 36.3825L1.2399 28.9713C0.72032 28.4029 0.581456 27.5753 0.886277 26.8638C1.1911 26.1523 1.88162 25.6923 2.64472 25.6923H12.4841C12.6046 25.6923 12.7242 25.7038 12.8414 25.7264L12.5726 25.3685C12.3718 25.101 12.2424 24.7852 12.197 24.4518L10.584 12.5938C10.4762 11.8014 10.8551 11.0223 11.5398 10.6285C12.2245 10.2347 13.0762 10.3059 13.6884 10.8082L21.9679 17.6013L27.4445 1.31937C27.7078 0.536297 28.4284 0.00748691 29.2421 7.87876e-05C30.0559 -0.00732918 30.7856 0.508277 31.0628 1.28643L36.8294 17.4782L44.6425 10.8303C45.2506 10.3129 46.109 10.2293 46.8026 10.62C47.4962 11.0107 47.882 11.7951 47.7733 12.5938L46.1603 24.4518C46.1168 24.7713 45.9962 25.0747 45.8092 25.3351L45.5301 25.7238C45.6427 25.7029 45.7576 25.6923 45.8733 25.6923H55.7126C56.4798 25.6923 57.1732 26.1572 57.4755 26.8743C57.7778 27.5915 57.6309 28.4228 57.102 28.988L50.1661 36.3992C50.1264 36.4416 50.085 36.4821 50.042 36.5205L53.2225 37.8642C54.0672 38.2211 54.5466 39.135 54.3677 40.0473C54.1888 40.9596 53.4013 41.6165 52.4866 41.6165H5.22553C4.28521 41.6165 3.48354 40.9233 3.33236 39.9794ZM38.6147 37.6894L48.7767 35.0543L55.7126 27.6431H45.8733L37.163 34.0661L44.2603 24.1845L45.8733 12.3265L37.163 19.7377L32.1627 32.2545L35.0661 18.2555L29.2593 1.95077L23.7751 18.2555L26.1946 32.2545L21.5169 19.7377L12.4841 12.3265L14.0971 24.1845L21.5169 34.0661L12.4841 27.6431H2.64472L9.41934 35.0543L20.5491 37.6894H11.0324L5.22553 39.6657H52.4866L47.8089 37.6894H38.6147Z" fill="#7CCA31" class="fill-path"/>
</svg>
