<svg style="width: 1em; height: 1em" viewBox="0 0 250 250" fill="none" xmlns="http://www.w3.org/2000/svg">
<path d="M230.436 19.2719C204.726 -6.42395 162.906 -6.42395 137.196 19.2719L82.8379 73.6303L144.554 135.346C157.256 124.768 173.36 118.145 191.142 118.145C201.341 118.145 211.046 120.264 219.877 124.047L230.436 112.512C256.139 86.809 256.139 44.9823 230.436 19.2719Z" fill="#7CCA31" class="fill-path"/>
<path d="M134.281 145.79L72.4791 83.9888L19.277 137.243C-6.42566 162.946 -6.42566 204.773 19.277 230.483C44.9865 256.177 87.2946 256.667 113.005 230.971L123.79 220.134C120.007 211.303 117.888 201.597 117.888 191.398C117.889 174.073 124.188 158.346 134.281 145.79Z" fill="#7CCA31" class="fill-path"/>
<path d="M132.539 191.398C132.539 221.254 154.948 245.62 183.816 249.262V133.535C154.948 137.177 132.539 161.542 132.539 191.398Z" fill="#7CCA31" class="fill-path"/>
<path d="M198.467 133.535V249.262C227.335 245.62 249.744 221.254 249.744 191.398C249.744 161.542 227.335 137.177 198.467 133.535Z" fill="#7CCA31" class="fill-path"/>
</svg>
