<svg style="width: 0.5875em; height: 1em" width="151" height="257" viewBox="0 0 151 257" fill="none" xmlns="http://www.w3.org/2000/svg">
<path d="M67.5268 102.037L50.6662 97.4869L34.6635 115.661L72.3623 125.833L67.5268 102.037Z" fill="#7CCA31" class="fill-path" />
<path d="M49.6075 93.4529L70.4458 99.0758L74.7266 82.9871C75.4976 80.0893 73.7904 77.1115 70.9129 76.335L60.4938 73.5235C57.6163 72.7471 54.6593 74.4663 53.8883 77.3641L49.6075 93.4529Z" fill="#7CCA31" class="fill-path" />
<path d="M102.676 165.877C105.637 166.676 108.677 164.837 109.342 161.786C109.964 158.929 108.129 156.102 105.322 155.345L100.258 153.978L103.05 143.486C103.821 140.588 102.113 137.61 99.2359 136.834L36.9537 120.027C34.0762 119.251 31.1193 120.97 30.3482 123.868L27.5564 134.361C27.1715 135.807 26.9977 136.46 26.2267 139.358L8.60404 205.591C7.83302 208.489 6.27357 214.35 5.22202 218.302L2.33716 229.144C1.56614 232.042 3.27336 235.02 6.15083 235.796L68.433 252.602C71.3105 253.379 74.2675 251.66 75.0385 248.762L91.8823 185.456L96.9468 186.823C99.7537 187.58 102.746 186.056 103.626 183.269C104.565 180.292 102.845 177.168 99.8837 176.369L94.6741 174.964L97.4659 164.471L102.676 165.877ZM25.1133 199.88C21.5919 199.392 19.4933 195.732 20.8348 192.417C21.7502 190.157 24.1275 188.775 26.5282 189.108C30.05 189.594 32.1486 193.254 30.8071 196.569C29.8917 198.829 27.5144 200.211 25.1133 199.88ZM36.6141 174.914C35.8206 177.896 32.7193 179.628 29.7632 178.682C26.9949 177.796 25.4818 174.783 26.2339 171.956L34.5315 140.77C35.2836 137.944 38.0901 136.096 40.9275 136.722C43.957 137.392 45.7831 140.453 44.9895 143.436L36.6141 174.914Z" fill="#7CCA31" class="fill-path" />
<path d="M128.953 42.9021L108.751 41.7859L107.231 43.6079C103.405 48.1964 97.6565 50.703 91.7136 50.3747L86.9949 50.1139C79.1739 49.6818 72.4876 55.7117 72.0587 63.584C71.9158 66.2068 69.6857 68.2179 67.0799 68.074C64.9928 67.9586 63.3537 66.477 62.8335 64.5534C62.8302 64.5681 62.8221 64.5813 62.8188 64.5973L62.6188 63.0624L63.5374 46.202C63.8944 39.6511 68.1781 33.9786 74.3532 31.8789L75.8014 31.3881C76.7825 30.4868 81.0625 21.1956 93.2666 21.8699L102.33 22.3707L103.271 18.69C105.52 9.90205 113.636 3.61734 122.639 4.11475L132.079 4.63634C137.649 4.94413 142.705 7.7016 146.06 12.1756C149.419 16.5542 150.696 22.6606 149.447 28.2141C147.544 37.0671 138.676 43.4393 128.953 42.9021Z" fill="#7CCA31" fill-opacity="0.4" class="fill-path" />
</svg>
